<svg width="189" height="34" viewBox="0 0 189 34" fill="none" xmlns="http://www.w3.org/2000/svg">
<path d="M185.611 25.8631H188.848V33.3176H183.011C177.585 33.3176 174.256 29.9585 174.256 24.4366V15.0955H169.741V13.0708L180.777 1.24484H182.555V8.46926H188.712V15.0955H182.738V23.0101C182.738 24.7587 183.832 25.8631 185.611 25.8631Z" fill="#F6F4F2"/>
<path d="M157.435 34C150.706 34 146.631 30.3898 146.54 24.9745H154.734C154.734 26.8259 156.016 27.659 157.618 27.659C158.854 27.659 160.045 27.0111 160.045 25.7151C160.045 24.2803 158.168 23.8637 155.787 23.4934C151.942 22.8455 146.86 21.6883 146.86 15.6251C146.86 10.6264 151.118 7.38644 157.435 7.38644C163.707 7.38644 167.827 10.7652 167.919 15.8102H159.907C159.907 14.2365 158.854 13.496 157.344 13.496C155.97 13.496 155.055 14.1903 155.055 15.3474C155.055 16.7359 156.932 17.1062 159.266 17.5227C163.203 18.217 168.376 19.0501 168.376 25.3448C168.376 30.575 164.027 34 157.435 34Z" fill="#F6F4F2"/>
<path d="M131.527 34C124.185 34 119.244 29.5656 119.244 22.7331V8.75122H127.833V22.3711C127.833 24.9502 129.264 26.4435 131.527 26.4435C133.836 26.4435 135.221 24.905 135.221 22.3711V8.75122H143.81V22.7331C143.81 29.5656 138.915 34 131.527 34Z" fill="#F6F4F2"/>
<path d="M114.188 8.06885H116.514V15.9882H113.118C110.093 15.9882 108.791 17.3392 108.791 20.5535V33.3176H100.137V8.16202H105.952L107.302 10.9571C109.07 8.90737 111.21 8.06885 114.188 8.06885Z" fill="#F6F4F2"/>
<path d="M94.1693 25.8631H97.407V33.3176H91.5699C86.1433 33.3176 82.8144 29.9585 82.8144 24.4366V15.0955H78.2998V13.0708L89.3354 1.24484H91.1139V8.46926H97.2702V15.0955H91.2963V23.0101C91.2963 24.7587 92.3908 25.8631 94.1693 25.8631Z" fill="#F6F4F2"/>
<path d="M65.5451 6.94394H76.1523L72.7403 10.9404H65.5451V24.643C65.5452 26.2472 65.9944 27.3398 66.668 28.0283C67.3374 28.7124 68.4005 29.1739 69.9887 29.1739H74.323V33.2576H69.8574C67.3698 33.2576 65.2198 32.4877 63.6925 30.9332C62.1681 29.3815 61.4174 27.204 61.4174 24.6863V10.9404H57.367V6.94394H61.4174V0H65.5451V6.94394Z" fill="#F6F4F2"/>
<path d="M44.1277 32.3295C37.2709 32.3295 32.0301 27.045 32.0301 20.0572C32.0301 13.0258 37.2273 7.8286 44.1277 7.8286C49.3685 7.8286 53.4301 10.7547 55.0897 15.2531H53.6922C52.0326 11.4535 48.4514 9.18248 44.1277 9.18248C38.0134 9.18248 33.4277 13.8556 33.4277 20.0572C33.4277 26.2588 38.0571 30.9756 44.1277 30.9756C48.4077 30.9756 51.9889 28.7046 53.7359 24.8176H55.1771C53.4301 29.447 49.2375 32.3295 44.1277 32.3295Z" fill="#F6F4F2"/>
<path d="M30.6653 20.0571C30.6653 12.2818 36.4637 6.46397 44.1274 6.46381L44.1277 7.8286C37.2273 7.8286 32.0301 13.0258 32.0301 20.0572C32.0301 27.045 37.2709 32.3295 44.1277 32.3295C49.2375 32.3295 53.4301 29.447 55.1771 24.8176H53.7359C51.9889 28.7046 48.4077 30.9756 44.1277 30.9756C38.0571 30.9756 33.4277 26.2588 33.4277 20.0572C33.4277 13.8556 38.0134 9.18248 44.1277 9.18248L44.5305 9.1894C48.6731 9.32612 52.0844 11.5722 53.6922 15.2531H55.0897C53.4301 10.7547 49.3685 7.8286 44.1277 7.8286L44.1274 6.46381C49.9276 6.46381 54.5083 9.73486 56.3699 14.7805L57.0483 16.6178H52.7993L52.4414 15.7995C51.0111 12.5248 47.9394 10.5475 44.1274 10.5475C38.7888 10.5477 34.7924 14.5874 34.7924 20.0571C34.7924 25.5305 38.8359 29.6106 44.1274 29.6107C47.8821 29.6107 50.969 27.644 52.4908 24.2582L52.8533 23.4531H57.1509L56.4539 25.2998C54.5013 30.4736 49.7906 33.6945 44.1274 33.6945C36.501 33.6943 30.6653 27.7824 30.6653 20.0571Z" fill="#F6F4F2"/>
<path d="M24.3371 8.26534L25.5163 8.30901V31.8927H24.2934L24.1624 25.7348C22.2408 29.709 18.3101 32.3295 13.375 32.3295C6.51828 32.3295 1.3648 27.045 1.3648 20.1009C1.3648 13.1131 6.51828 7.8286 13.375 7.8286C18.3101 7.8286 22.2844 10.449 24.1624 14.467L24.3371 8.26534ZM13.4624 30.9756C19.6203 30.9756 24.1187 26.3899 24.1187 20.1009C24.1187 13.8119 19.6203 9.18248 13.4624 9.18248C7.34807 9.18248 2.76235 13.8992 2.76235 20.1009C2.76235 26.3025 7.34807 30.9756 13.4624 30.9756Z" fill="#F6F4F2"/>
<path d="M13.3748 6.46381C17.1974 6.46381 20.5336 7.8988 22.9137 10.311L23.0116 6.85032L26.8808 6.9936V33.2573H22.9577L22.885 29.8713C20.5069 32.2594 17.1988 33.6945 13.3748 33.6945C5.73867 33.6943 0.000127865 27.7727 0 20.1011C0 12.389 5.73542 6.46394 13.3748 6.46381ZM22.7537 20.1011C22.7537 14.5327 18.8335 10.5475 13.4621 10.5475C8.13059 10.5477 4.12705 14.6241 4.12705 20.1011C4.12717 25.5707 8.12353 29.6106 13.4621 29.6107C18.8406 29.6107 22.7536 25.662 22.7537 20.1011ZM1.3688 20.425C1.52643 27.2086 6.6255 32.3293 13.375 32.3295C18.3101 32.3295 22.2408 29.709 24.1624 25.7348L24.2934 31.8927H25.5163V8.30901L24.3371 8.26534L24.1624 14.467C22.2844 10.449 18.3101 7.8286 13.375 7.8286C6.51828 7.8286 1.3648 13.1131 1.3648 20.1009L1.3688 20.425ZM24.1152 20.3943C23.9775 26.532 19.5241 30.9756 13.4624 30.9756C7.44373 30.9754 2.90586 26.4473 2.76558 20.3903L2.76235 20.1009C2.76235 13.8992 7.34807 9.18248 13.4624 9.18248C19.6203 9.18248 24.1187 13.8119 24.1187 20.1009L24.1152 20.3943Z" fill="#F6F4F2"/>
</svg>
